<svg xmlns="http://www.w3.org/2000/svg" xmlns:xlink="http://www.w3.org/1999/xlink" width="227" zoomAndPan="magnify" viewBox="0 0 170.25 63.749998" height="85" preserveAspectRatio="xMidYMid meet" version="1.0"><defs><g/><clipPath id="c2fb8643fb"><path d="M 0 0.015625 L 169.503906 0.015625 L 169.503906 63.484375 L 0 63.484375 Z M 0 0.015625 " clip-rule="nonzero"/></clipPath><clipPath id="20ab86787f"><path d="M 139.160156 2.910156 L 168.386719 2.910156 L 168.386719 34.746094 L 139.160156 34.746094 Z M 139.160156 2.910156 " clip-rule="nonzero"/></clipPath><clipPath id="878ca6aadb"><path d="M 165.238281 24 L 148.269531 33.804688 C 146.402344 34.878906 144.105469 34.882812 142.238281 33.804688 C 140.371094 32.726562 139.222656 30.734375 139.222656 28.578125 L 139.222656 8.96875 C 139.222656 6.8125 140.371094 4.824219 142.238281 3.746094 C 144.105469 2.667969 146.402344 2.667969 148.269531 3.746094 L 165.238281 13.546875 C 167.105469 14.625 168.257812 16.617188 168.257812 18.773438 C 168.257812 20.929688 167.105469 22.921875 165.238281 24 Z M 165.238281 24 " clip-rule="nonzero"/></clipPath><clipPath id="4563c74927"><path d="M 0.160156 0.910156 L 29.386719 0.910156 L 29.386719 32.746094 L 0.160156 32.746094 Z M 0.160156 0.910156 " clip-rule="nonzero"/></clipPath><clipPath id="c495418f77"><path d="M 26.238281 22 L 9.269531 31.804688 C 7.402344 32.878906 5.105469 32.882812 3.238281 31.804688 C 1.371094 30.726562 0.222656 28.734375 0.222656 26.578125 L 0.222656 6.96875 C 0.222656 4.8125 1.371094 2.824219 3.238281 1.746094 C 5.105469 0.667969 7.402344 0.667969 9.269531 1.746094 L 26.238281 11.546875 C 28.105469 12.625 29.257812 14.617188 29.257812 16.773438 C 29.257812 18.929688 28.105469 20.921875 26.238281 22 Z M 26.238281 22 " clip-rule="nonzero"/></clipPath><clipPath id="4b81d14c0a"><rect x="0" width="30" y="0" height="33"/></clipPath><clipPath id="1445ed73e8"><path d="M 0 0.015625 L 136 0.015625 L 136 42 L 0 42 Z M 0 0.015625 " clip-rule="nonzero"/></clipPath><clipPath id="d02b105670"><rect x="0" width="136" y="0" height="42"/></clipPath><clipPath id="1c599afc40"><path d="M 0 28 L 169 28 L 169 63.484375 L 0 63.484375 Z M 0 28 " clip-rule="nonzero"/></clipPath><clipPath id="582ece40a6"><rect x="0" width="169" y="0" height="36"/></clipPath><clipPath id="b8891c34b0"><rect x="0" width="170" y="0" height="64"/></clipPath></defs><g clip-path="url(#c2fb8643fb)"><g transform="matrix(1, 0, 0, 1, 0, 0.000000000000015562)"><g clip-path="url(#b8891c34b0)"><g clip-path="url(#20ab86787f)"><g clip-path="url(#878ca6aadb)"><g transform="matrix(1, 0, 0, 1, 139, 2)"><g clip-path="url(#4b81d14c0a)"><g clip-path="url(#4563c74927)"><g clip-path="url(#c495418f77)"><path fill="#2a63e6" d="M 35.289062 -3.480469 L 35.289062 37 L 0.160156 37 L 0.160156 -3.480469 Z M 35.289062 -3.480469 " fill-opacity="1" fill-rule="nonzero"/></g></g></g></g></g></g><g clip-path="url(#1445ed73e8)"><g transform="matrix(1, 0, 0, 1, 0, 0.000000000000015562)"><g clip-path="url(#d02b105670)"><g fill="#121927" fill-opacity="1"><g transform="translate(0.000000000000031819, 30.878598)"><g><path d="M 13.1875 0.34375 C 10.96875 0.34375 9.007812 -0.113281 7.3125 -1.03125 C 5.613281 -1.957031 4.285156 -3.347656 3.328125 -5.203125 C 2.378906 -7.054688 1.90625 -9.34375 1.90625 -12.0625 C 1.90625 -14.78125 2.378906 -17.066406 3.328125 -18.921875 C 4.285156 -20.773438 5.613281 -22.164062 7.3125 -23.09375 C 9.007812 -24.019531 10.96875 -24.484375 13.1875 -24.484375 C 15.507812 -24.484375 17.484375 -24.03125 19.109375 -23.125 C 20.734375 -22.21875 21.890625 -20.832031 22.578125 -18.96875 L 19.109375 -16.84375 L 18.6875 -16.859375 C 18.164062 -18.109375 17.460938 -19.003906 16.578125 -19.546875 C 15.691406 -20.097656 14.5625 -20.375 13.1875 -20.375 C 11.1875 -20.375 9.625 -19.707031 8.5 -18.375 C 7.375 -17.050781 6.8125 -14.945312 6.8125 -12.0625 C 6.8125 -9.195312 7.375 -7.097656 8.5 -5.765625 C 9.625 -4.441406 11.1875 -3.78125 13.1875 -3.78125 C 16.320312 -3.78125 18.242188 -5.304688 18.953125 -8.359375 L 19.359375 -8.359375 L 22.890625 -6.515625 C 22.222656 -4.234375 21.09375 -2.519531 19.5 -1.375 C 17.90625 -0.226562 15.800781 0.34375 13.1875 0.34375 Z M 13.1875 0.34375 "/></g></g></g><g fill="#121927" fill-opacity="1"><g transform="translate(23.677633, 30.878598)"><g><path d="M 23.15625 0 L 18.140625 0 L 16.328125 -5.5625 L 7.078125 -5.5625 L 5.265625 0 L 0.359375 0 L 8.703125 -24.140625 L 14.828125 -24.140625 Z M 11.46875 -19.109375 L 8.375 -9.578125 L 15 -9.578125 L 11.890625 -19.109375 Z M 11.46875 -19.109375 "/></g></g></g><g fill="#121927" fill-opacity="1"><g transform="translate(47.206669, 30.878598)"><g><path d="M 3.140625 0 L 3.140625 -24.140625 L 12.828125 -24.140625 C 15.328125 -24.140625 17.210938 -23.5625 18.484375 -22.40625 C 19.753906 -21.257812 20.390625 -19.675781 20.390625 -17.65625 C 20.390625 -16.1875 20.015625 -14.984375 19.265625 -14.046875 C 18.523438 -13.109375 17.421875 -12.394531 15.953125 -11.90625 L 15.953125 -11.5625 C 16.710938 -11.226562 17.320312 -10.734375 17.78125 -10.078125 C 18.25 -9.429688 18.695312 -8.472656 19.125 -7.203125 L 21.53125 0 L 16.625 0 L 14.265625 -7.21875 C 14.023438 -7.9375 13.753906 -8.5 13.453125 -8.90625 C 13.148438 -9.3125 12.765625 -9.601562 12.296875 -9.78125 C 11.828125 -9.957031 11.21875 -10.046875 10.46875 -10.046875 L 7.90625 -10.046875 L 7.90625 0 Z M 12.25 -13.828125 C 14.5625 -13.828125 15.71875 -14.910156 15.71875 -17.078125 C 15.71875 -19.265625 14.5625 -20.359375 12.25 -20.359375 L 7.90625 -20.359375 L 7.90625 -13.828125 Z M 12.25 -13.828125 "/></g></g></g><g fill="#121927" fill-opacity="1"><g transform="translate(69.778033, 30.878598)"><g><path d="M 7.90625 -10.59375 L 7.90625 -4 L 19.4375 -4 L 19.4375 0 L 3.140625 0 L 3.140625 -24.140625 L 19.171875 -24.140625 L 19.171875 -20.140625 L 7.90625 -20.140625 L 7.90625 -14.5 L 17.75 -14.5 L 17.75 -10.59375 Z M 7.90625 -10.59375 "/></g></g></g><g fill="#121927" fill-opacity="1"><g transform="translate(90.53312, 30.878598)"><g><path d="M 7.90625 -10.59375 L 7.90625 -4 L 19.4375 -4 L 19.4375 0 L 3.140625 0 L 3.140625 -24.140625 L 19.171875 -24.140625 L 19.171875 -20.140625 L 7.90625 -20.140625 L 7.90625 -14.5 L 17.75 -14.5 L 17.75 -10.59375 Z M 7.90625 -10.59375 "/></g></g></g><g fill="#121927" fill-opacity="1"><g transform="translate(111.288208, 30.878598)"><g><path d="M 3.140625 0 L 3.140625 -24.140625 L 12.828125 -24.140625 C 15.328125 -24.140625 17.210938 -23.5625 18.484375 -22.40625 C 19.753906 -21.257812 20.390625 -19.675781 20.390625 -17.65625 C 20.390625 -16.1875 20.015625 -14.984375 19.265625 -14.046875 C 18.523438 -13.109375 17.421875 -12.394531 15.953125 -11.90625 L 15.953125 -11.5625 C 16.710938 -11.226562 17.320312 -10.734375 17.78125 -10.078125 C 18.25 -9.429688 18.695312 -8.472656 19.125 -7.203125 L 21.53125 0 L 16.625 0 L 14.265625 -7.21875 C 14.023438 -7.9375 13.753906 -8.5 13.453125 -8.90625 C 13.148438 -9.3125 12.765625 -9.601562 12.296875 -9.78125 C 11.828125 -9.957031 11.21875 -10.046875 10.46875 -10.046875 L 7.90625 -10.046875 L 7.90625 0 Z M 12.25 -13.828125 C 14.5625 -13.828125 15.71875 -14.910156 15.71875 -17.078125 C 15.71875 -19.265625 14.5625 -20.359375 12.25 -20.359375 L 7.90625 -20.359375 L 7.90625 -13.828125 Z M 12.25 -13.828125 "/></g></g></g></g></g></g><g clip-path="url(#1c599afc40)"><g transform="matrix(1, 0, 0, 1, 0, 28)"><g clip-path="url(#582ece40a6)"><g fill="#2a63e6" fill-opacity="1"><g transform="translate(0.0237984, 33.28364)"><g><path d="M 11.359375 -21.984375 C 12.929688 -21.984375 14.273438 -21.691406 15.390625 -21.109375 C 16.503906 -20.535156 17.347656 -19.726562 17.921875 -18.6875 C 18.492188 -17.65625 18.78125 -16.453125 18.78125 -15.078125 C 18.78125 -13.703125 18.492188 -12.5 17.921875 -11.46875 C 17.347656 -10.4375 16.503906 -9.632812 15.390625 -9.0625 C 14.273438 -8.488281 12.929688 -8.203125 11.359375 -8.203125 L 7.203125 -8.203125 L 7.203125 0 L 2.859375 0 L 2.859375 -21.984375 Z M 10.78125 -11.640625 C 13.195312 -11.640625 14.40625 -12.785156 14.40625 -15.078125 C 14.40625 -17.390625 13.195312 -18.546875 10.78125 -18.546875 L 7.203125 -18.546875 L 7.203125 -11.640625 Z M 10.78125 -11.640625 "/></g></g></g><g fill="#2a63e6" fill-opacity="1"><g transform="translate(20.112832, 33.28364)"><g><path d="M 7.203125 -21.984375 L 7.203125 -3.640625 L 17.078125 -3.640625 L 17.078125 0 L 2.859375 0 L 2.859375 -21.984375 Z M 7.203125 -21.984375 "/></g></g></g><g fill="#2a63e6" fill-opacity="1"><g transform="translate(38.081736, 33.28364)"><g><path d="M 21.09375 0 L 16.53125 0 L 14.875 -5.0625 L 6.453125 -5.0625 L 4.796875 0 L 0.328125 0 L 7.921875 -21.984375 L 13.5 -21.984375 Z M 10.453125 -17.390625 L 7.625 -8.71875 L 13.671875 -8.71875 L 10.828125 -17.390625 Z M 10.453125 -17.390625 "/></g></g></g><g fill="#2a63e6" fill-opacity="1"><g transform="translate(57.598782, 33.28364)"><g><path d="M 12.046875 0 L 7.703125 0 L 7.703125 -8.625 L 0.109375 -21.984375 L 4.765625 -21.984375 L 9.796875 -13.34375 L 10.171875 -13.34375 L 15.078125 -21.984375 L 19.640625 -21.984375 L 12.046875 -8.625 Z M 12.046875 0 "/></g></g></g><g fill="#2a63e6" fill-opacity="1"><g transform="translate(77.341971, 33.28364)"><g><path d="M 2.859375 0 L 2.859375 -21.984375 L 12.234375 -21.984375 C 13.585938 -21.984375 14.734375 -21.769531 15.671875 -21.34375 C 16.609375 -20.914062 17.316406 -20.304688 17.796875 -19.515625 C 18.285156 -18.734375 18.53125 -17.804688 18.53125 -16.734375 C 18.53125 -15.765625 18.289062 -14.90625 17.8125 -14.15625 C 17.34375 -13.414062 16.671875 -12.820312 15.796875 -12.375 L 15.796875 -12.0625 C 17.171875 -11.695312 18.234375 -11.035156 18.984375 -10.078125 C 19.742188 -9.128906 20.125 -7.96875 20.125 -6.59375 C 20.125 -4.476562 19.488281 -2.847656 18.21875 -1.703125 C 16.945312 -0.566406 15.066406 0 12.578125 0 Z M 11.34375 -13.21875 C 13.363281 -13.21875 14.375 -14.128906 14.375 -15.953125 C 14.375 -16.890625 14.125 -17.582031 13.625 -18.03125 C 13.125 -18.488281 12.363281 -18.71875 11.34375 -18.71875 L 7.203125 -18.71875 L 7.203125 -13.21875 Z M 12.140625 -3.4375 C 14.535156 -3.4375 15.734375 -4.523438 15.734375 -6.703125 C 15.734375 -8.890625 14.535156 -9.984375 12.140625 -9.984375 L 7.203125 -9.984375 L 7.203125 -3.4375 Z M 12.140625 -3.4375 "/></g></g></g><g fill="#2a63e6" fill-opacity="1"><g transform="translate(98.844454, 33.28364)"><g><path d="M 11.984375 0.3125 C 9.972656 0.3125 8.195312 -0.0976562 6.65625 -0.921875 C 5.113281 -1.742188 3.90625 -3 3.03125 -4.6875 C 2.164062 -6.375 1.734375 -8.476562 1.734375 -11 C 1.734375 -13.507812 2.164062 -15.609375 3.03125 -17.296875 C 3.90625 -18.984375 5.113281 -20.238281 6.65625 -21.0625 C 8.195312 -21.882812 9.972656 -22.296875 11.984375 -22.296875 C 13.992188 -22.296875 15.765625 -21.882812 17.296875 -21.0625 C 18.835938 -20.25 20.039062 -18.992188 20.90625 -17.296875 C 21.769531 -15.609375 22.203125 -13.507812 22.203125 -11 C 22.203125 -8.476562 21.769531 -6.367188 20.90625 -4.671875 C 20.039062 -2.984375 18.835938 -1.726562 17.296875 -0.90625 C 15.765625 -0.09375 13.992188 0.3125 11.984375 0.3125 Z M 11.984375 -3.453125 C 13.847656 -3.453125 15.269531 -4.050781 16.25 -5.25 C 17.238281 -6.445312 17.734375 -8.363281 17.734375 -11 C 17.734375 -13.625 17.238281 -15.535156 16.25 -16.734375 C 15.269531 -17.941406 13.847656 -18.546875 11.984375 -18.546875 C 10.109375 -18.546875 8.675781 -17.941406 7.6875 -16.734375 C 6.695312 -15.535156 6.203125 -13.625 6.203125 -11 C 6.203125 -8.363281 6.695312 -6.445312 7.6875 -5.25 C 8.675781 -4.050781 10.109375 -3.453125 11.984375 -3.453125 Z M 11.984375 -3.453125 "/></g></g></g><g fill="#2a63e6" fill-opacity="1"><g transform="translate(122.79792, 33.28364)"><g><path d="M 11.984375 0.3125 C 9.972656 0.3125 8.195312 -0.0976562 6.65625 -0.921875 C 5.113281 -1.742188 3.90625 -3 3.03125 -4.6875 C 2.164062 -6.375 1.734375 -8.476562 1.734375 -11 C 1.734375 -13.507812 2.164062 -15.609375 3.03125 -17.296875 C 3.90625 -18.984375 5.113281 -20.238281 6.65625 -21.0625 C 8.195312 -21.882812 9.972656 -22.296875 11.984375 -22.296875 C 13.992188 -22.296875 15.765625 -21.882812 17.296875 -21.0625 C 18.835938 -20.25 20.039062 -18.992188 20.90625 -17.296875 C 21.769531 -15.609375 22.203125 -13.507812 22.203125 -11 C 22.203125 -8.476562 21.769531 -6.367188 20.90625 -4.671875 C 20.039062 -2.984375 18.835938 -1.726562 17.296875 -0.90625 C 15.765625 -0.09375 13.992188 0.3125 11.984375 0.3125 Z M 11.984375 -3.453125 C 13.847656 -3.453125 15.269531 -4.050781 16.25 -5.25 C 17.238281 -6.445312 17.734375 -8.363281 17.734375 -11 C 17.734375 -13.625 17.238281 -15.535156 16.25 -16.734375 C 15.269531 -17.941406 13.847656 -18.546875 11.984375 -18.546875 C 10.109375 -18.546875 8.675781 -17.941406 7.6875 -16.734375 C 6.695312 -15.535156 6.203125 -13.625 6.203125 -11 C 6.203125 -8.363281 6.695312 -6.445312 7.6875 -5.25 C 8.675781 -4.050781 10.109375 -3.453125 11.984375 -3.453125 Z M 11.984375 -3.453125 "/></g></g></g><g fill="#2a63e6" fill-opacity="1"><g transform="translate(146.751386, 33.28364)"><g><path d="M 2.859375 0 L 2.859375 -21.984375 L 7.203125 -21.984375 L 7.203125 -13 L 7.6875 -13 L 15.015625 -21.984375 L 19.46875 -21.984375 L 19.46875 -21.609375 L 11.390625 -11.609375 L 20.3125 -0.375 L 20.3125 0 L 15.40625 0 L 7.6875 -9.484375 L 7.203125 -9.484375 L 7.203125 0 Z M 2.859375 0 "/></g></g></g></g></g></g></g></g></g></svg>