<svg xmlns="http://www.w3.org/2000/svg" xmlns:xlink="http://www.w3.org/1999/xlink" width="76" zoomAndPan="magnify" viewBox="0 0 56.879997 56.999997" height="76" preserveAspectRatio="xMidYMid meet" version="1.0"><defs><clipPath id="19197fe43e"><path d="M 6 0.0585938 L 56.761719 0.0585938 L 56.761719 56.9375 L 6 56.9375 Z M 6 0.0585938 " clip-rule="nonzero"/></clipPath><clipPath id="645336326d"><path d="M 1 1.785156 L 47.625 1.785156 L 47.625 55.304688 L 1 55.304688 Z M 1 1.785156 " clip-rule="nonzero"/></clipPath><clipPath id="3454ab5a21"><path d="M 46.300781 30.609375 L 4.6875 54.839844 C 3.945312 55.269531 3.027344 55.273438 2.28125 54.84375 C 1.53125 54.414062 1.074219 53.621094 1.074219 52.757812 L 1.074219 4.246094 C 1.074219 3.386719 1.53125 2.589844 2.28125 2.164062 C 3.027344 1.734375 3.945312 1.734375 4.6875 2.167969 L 46.300781 26.398438 C 47.050781 26.835938 47.511719 27.636719 47.511719 28.503906 C 47.511719 29.371094 47.050781 30.171875 46.300781 30.609375 Z M 46.300781 30.609375 " clip-rule="nonzero"/></clipPath><clipPath id="4eebe0c6e9"><path d="M 0 0.785156 L 46.625 0.785156 L 46.625 54.304688 L 0 54.304688 Z M 0 0.785156 " clip-rule="nonzero"/></clipPath><clipPath id="76b57289ba"><path d="M 45.300781 29.609375 L 3.6875 53.839844 C 2.945312 54.269531 2.027344 54.273438 1.28125 53.84375 C 0.53125 53.414062 0.0742188 52.621094 0.0742188 51.757812 L 0.0742188 3.246094 C 0.0742188 2.386719 0.53125 1.589844 1.28125 1.164062 C 2.027344 0.734375 2.945312 0.734375 3.6875 1.167969 L 45.300781 25.398438 C 46.050781 25.835938 46.511719 26.636719 46.511719 27.503906 C 46.511719 28.371094 46.050781 29.171875 45.300781 29.609375 Z M 45.300781 29.609375 " clip-rule="nonzero"/></clipPath><clipPath id="be75443aee"><rect x="0" width="47" y="0" height="55"/></clipPath><clipPath id="821fb533a3"><rect x="0" width="51" y="0" height="57"/></clipPath></defs><g clip-path="url(#19197fe43e)"><g transform="matrix(1, 0, 0, 1, 6, 0.00000000000000755)"><g clip-path="url(#821fb533a3)"><g clip-path="url(#645336326d)"><g clip-path="url(#3454ab5a21)"><g transform="matrix(1, 0, 0, 1, 1, 1)"><g clip-path="url(#be75443aee)"><g clip-path="url(#4eebe0c6e9)"><g clip-path="url(#76b57289ba)"><rect x="-27.704319" width="98.288635" fill="#2a63e6" y="-21.747999" height="98.495995" fill-opacity="1"/></g></g></g></g></g></g></g></g></g></svg>
